<?xml version="1.0" encoding="UTF-8"?>

<!-- This file was generated by AI -->


<svg width="800" height="200" viewBox="0 0 800 200" xmlns="http://www.w3.org/2000/svg">
  <defs>
    <!-- Cosmic gradient -->
    <linearGradient id="cosmicGrad" x1="0%" y1="0%" x2="100%" y2="100%">
      <stop offset="0%" style="stop-color:#0F172A;stop-opacity:1" />
      <stop offset="50%" style="stop-color:#1E1B4B;stop-opacity:1" />
      <stop offset="100%" style="stop-color:#312E81;stop-opacity:1" />
    </linearGradient>
    
    <!-- Nebula effect -->
    <radialGradient id="nebula1" cx="30%" cy="30%" r="70%" fx="30%" fy="30%">
      <stop offset="0%" style="stop-color:#818CF8;stop-opacity:0.3" />
      <stop offset="100%" style="stop-color:#312E81;stop-opacity:0" />
    </radialGradient>
    
    <radialGradient id="nebula2" cx="70%" cy="70%" r="70%" fx="70%" fy="70%">
      <stop offset="0%" style="stop-color:#C084FC;stop-opacity:0.3" />
      <stop offset="100%" style="stop-color:#312E81;stop-opacity:0" />
    </radialGradient>
    
    <!-- Star pattern -->
    <pattern id="stars" x="0" y="0" width="100" height="100" patternUnits="userSpaceOnUse">
      <circle cx="10" cy="10" r="1" fill="white" fill-opacity="0.8"/>
      <circle cx="30" cy="30" r="0.5" fill="white" fill-opacity="0.6"/>
      <circle cx="50" cy="20" r="0.8" fill="white" fill-opacity="0.7"/>
      <circle cx="70" cy="40" r="0.6" fill="white" fill-opacity="0.5"/>
      <circle cx="90" cy="10" r="0.7" fill="white" fill-opacity="0.9"/>
      <circle cx="20" cy="60" r="0.5" fill="white" fill-opacity="0.6"/>
      <circle cx="40" cy="80" r="0.8" fill="white" fill-opacity="0.7"/>
      <circle cx="60" cy="70" r="0.6" fill="white" fill-opacity="0.5"/>
      <circle cx="80" cy="90" r="0.7" fill="white" fill-opacity="0.8"/>
    </pattern>
  </defs>
  
  <!-- Background -->
  <rect x="0" y="0" width="800" height="200" rx="20" ry="20" fill="url(#cosmicGrad)"/>
  
  <!-- Nebula effects -->
  <rect x="0" y="0" width="800" height="200" rx="20" ry="20" fill="url(#nebula1)"/>
  <rect x="0" y="0" width="800" height="200" rx="20" ry="20" fill="url(#nebula2)"/>
  
  <!-- Stars -->
  <rect x="0" y="0" width="800" height="200" rx="20" ry="20" fill="url(#stars)"/>
  
  <!-- Connected Stars (Constellation) -->
  <g stroke="white" stroke-width="0.5" stroke-opacity="0.3">
    <!-- First constellation -->
    <circle cx="100" cy="50" r="2" fill="white" fill-opacity="0.9"/>
    <circle cx="150" cy="30" r="1.5" fill="white" fill-opacity="0.8"/>
    <circle cx="200" cy="60" r="2" fill="white" fill-opacity="0.9"/>
    <circle cx="250" cy="40" r="1.5" fill="white" fill-opacity="0.8"/>
    <circle cx="300" cy="70" r="2" fill="white" fill-opacity="0.9"/>
    <line x1="100" y1="50" x2="150" y2="30"/>
    <line x1="150" y1="30" x2="200" y2="60"/>
    <line x1="200" y1="60" x2="250" y2="40"/>
    <line x1="250" y1="40" x2="300" y2="70"/>
    
    <!-- Second constellation -->
    <circle cx="500" cy="40" r="2" fill="white" fill-opacity="0.9"/>
    <circle cx="550" cy="60" r="1.5" fill="white" fill-opacity="0.8"/>
    <circle cx="600" cy="30" r="2" fill="white" fill-opacity="0.9"/>
    <circle cx="650" cy="50" r="1.5" fill="white" fill-opacity="0.8"/>
    <circle cx="700" cy="40" r="2" fill="white" fill-opacity="0.9"/>
    <line x1="500" y1="40" x2="550" y2="60"/>
    <line x1="550" y1="60" x2="600" y2="30"/>
    <line x1="600" y1="30" x2="650" y2="50"/>
    <line x1="650" y1="50" x2="700" y2="40"/>
    
    <!-- Third constellation -->
    <circle cx="200" cy="150" r="2" fill="white" fill-opacity="0.9"/>
    <circle cx="250" cy="130" r="1.5" fill="white" fill-opacity="0.8"/>
    <circle cx="300" cy="160" r="2" fill="white" fill-opacity="0.9"/>
    <circle cx="350" cy="140" r="1.5" fill="white" fill-opacity="0.8"/>
    <circle cx="400" cy="170" r="2" fill="white" fill-opacity="0.9"/>
    <line x1="200" y1="150" x2="250" y2="130"/>
    <line x1="250" y1="130" x2="300" y2="160"/>
    <line x1="300" y1="160" x2="350" y2="140"/>
    <line x1="350" y1="140" x2="400" y2="170"/>
  </g>
  
  <!-- Text -->
  <text x="400" y="120" 
        font-family="'Victor Mono', monospace" 
        font-size="48" 
        font-weight="700" 
        font-style="normal"
        fill="white" 
        text-anchor="middle">
    👋 Hi, I'm Shakhiul Abrar
  </text>
</svg>
